<svg width="1365" height="118" viewBox="0 0 1365 118" fill="none" xmlns="http://www.w3.org/2000/svg">
<path fill-rule="evenodd" clip-rule="evenodd" d="M232.16 58.5267C232.169 70.0484 228.698 81.3138 222.184 90.8981C215.671 100.482 206.408 107.955 195.568 112.371C184.728 116.786 172.797 117.946 161.285 115.704C149.773 113.462 139.197 107.919 130.895 99.7747C122.593 91.631 116.938 81.2526 114.645 69.9531C113.988 66.718 113.616 63.4491 113.524 60.181C113.095 74.3629 107.169 87.8758 96.9202 97.9377C86.2729 108.39 71.832 114.262 56.7745 114.262H0V2.78989H56.7745C71.832 2.78989 86.2729 8.66205 96.9202 19.1146C107.181 29.1875 113.108 42.7189 113.525 56.9177C113.73 49.8686 115.237 42.8774 118.013 36.2946C122.502 25.6492 130.107 16.5499 139.864 10.1478C149.622 3.7458 161.095 0.328617 172.831 0.328613C188.55 0.353142 203.619 6.49133 214.739 17.3989C225.858 28.3065 232.123 43.095 232.16 58.5267ZM380.957 2.78694L364.823 61.0778L348.737 2.78694H319.12L302.797 61.2637L286.664 2.78694H240.96L281.27 114.26H319.12L333.976 69.0668L348.737 114.26H386.587L426.66 2.78694H380.957ZM546.36 2.78694V114.26H503.306V74.3615H476.48V114.26H433.426V2.78694H476.48V42.685H503.353V2.78694H546.36ZM562.493 2.78694V114.26H605.5V2.78694H562.493ZM699.65 82.3505V114.26H621.633V2.78694H664.687V82.5362L699.65 82.3505ZM753.398 45.1465V34.5103L788.361 34.6959V2.78694H710.391V114.26H788.361V82.3505H753.398V71.7143H780.318V45.1465H753.398Z" fill="url(#paint0_linear_61689:3480)"/>
<path d="M924.525 3.48366L909.196 1.20752C908.723 1.20752 908.25 1.20764 908.25 1.62567L901.721 9.84686C901.385 10.3905 901.236 11.0251 901.295 11.6581C901.295 12.1225 900.822 13.0515 900.349 12.5871L895.239 11.2402C894.293 11.2402 893.394 11.2402 892.921 12.1227L872.009 38.5975C871.535 39.062 871.063 39.0619 870.164 39.0619L862.262 35.3927C861.919 35.167 861.516 35.0465 861.103 35.0465C860.69 35.0465 860.287 35.167 859.944 35.3927L855.733 38.1329C855.393 38.3646 854.988 38.4889 854.574 38.4889C854.16 38.4889 853.755 38.3646 853.415 38.1329L851.57 37.2039C851.264 37.07 850.933 37.0002 850.598 36.9986C850.263 36.9971 849.932 37.064 849.625 37.1951C849.318 37.3262 849.042 37.5187 848.815 37.7601C848.588 38.0015 848.414 38.2867 848.305 38.5975L846.933 44.9607C846.755 45.6368 846.791 46.35 847.036 47.0055C847.281 47.661 847.724 48.2275 848.305 48.6299L852.043 50.9058L861.789 56.8511L866.52 59.5913C867.175 59.9578 867.931 60.1106 868.68 60.0271C869.428 59.9436 870.13 59.6283 870.684 59.127L878.585 52.2991C879.294 51.8778 880.131 51.7136 880.951 51.8348L883.269 53.1816C884.168 53.6461 885.114 53.6462 885.587 52.7173L889.751 49.0943C890.039 48.7892 890.418 48.5805 890.834 48.4973C891.25 48.414 891.682 48.4604 892.069 48.6299L898.125 51.3704C899.071 51.8349 899.97 51.3703 900.916 50.9058L903.708 47.2831L924.62 20.8083C925.518 19.4149 925.093 17.6034 923.2 17.6034L918.469 16.7209C917.523 16.7209 917.097 15.3275 917.523 14.3986L924.998 5.75951C925.944 4.83057 925.424 3.48366 924.525 3.48366Z" fill="white"/>
<path d="M854.976 56.8506C854.503 56.3861 854.03 56.8505 854.03 57.315L856.348 63.2138V64.6072L854.503 72.3637C854.473 72.6088 854.499 72.8575 854.581 73.0909C854.663 73.3243 854.798 73.5364 854.976 73.7109L860.512 77.8444C860.783 78.0478 861.116 78.1582 861.458 78.1582C861.8 78.1582 862.132 78.0478 862.404 77.8444L868.413 72.8284C868.6 72.6528 868.824 72.52 869.069 72.4397C869.315 72.3594 869.575 72.3334 869.832 72.3637L876.314 71.435C876.787 71.435 876.787 70.9705 876.314 70.506L854.976 56.8506Z" fill="white"/>
<path d="M852.942 76.4516C852.863 76.3459 852.759 76.2601 852.64 76.201C852.521 76.1418 852.389 76.1111 852.256 76.1111C852.122 76.1111 851.991 76.1418 851.871 76.201C851.752 76.2601 851.649 76.3459 851.57 76.4516L846.839 78.7274C846.713 78.7274 846.593 78.7764 846.504 78.8635C846.415 78.9506 846.365 79.0689 846.365 79.192L836.146 103.809H836.619L838.937 102.926V103.391L831.509 115.235C831.509 115.699 831.509 115.699 831.935 115.699L857.957 89.6891C858.43 89.6891 858.43 89.2246 858.43 88.7601L858.903 81.9323C858.903 81.4678 858.903 81.0035 858.43 81.0035L852.942 76.4516Z" fill="white"/>
<path d="M1055.91 82.3517V114.261H951.067C951.067 114.261 1000.93 60.4752 1007.51 47.8417C1012.71 37.902 1007.18 31.9104 1002.12 31.9104C997.054 31.9104 991.377 34.7436 991.377 47.8417L951.398 45.1942C951.398 20.2986 969.187 0.0476074 1002.12 0.0476074C1033.86 0.0476074 1053.21 16.4899 1053.21 39.8991C1053.21 54.4835 1040.44 71.1116 1026.34 82.3982L1055.91 82.3517Z" fill="white"/>
<path d="M1174.19 58.5262C1174.19 90.7604 1152.47 117.003 1120.4 117.003C1088.32 117.003 1066.65 90.7604 1066.65 58.5262C1066.65 26.2921 1088.32 0.0959473 1120.4 0.0959473C1152.47 0.0959473 1174.19 26.0134 1174.19 58.5262Z" fill="white"/>
<path d="M1289.77 82.3517V114.261H1184.93C1184.93 114.261 1234.8 60.4752 1241.37 47.8417C1246.58 37.902 1241.04 31.9104 1235.98 31.9104C1230.92 31.9104 1225.24 34.7436 1225.24 47.8417L1185.26 45.1942C1185.26 20.2986 1203.05 0.0476074 1235.98 0.0476074C1267.73 0.0476074 1287.08 16.4899 1287.08 39.8991C1287.08 54.4835 1274.3 71.1116 1260.2 82.3982L1289.77 82.3517Z" fill="white"/>
<path d="M1365 0V114.259H1321.99V39.9442L1303.07 42.2666V10.2181L1365 0Z" fill="white"/>
<defs>
<linearGradient id="paint0_linear_61689:3480" x1="-1.61303e-05" y1="3.09178" x2="247.728" y2="430.31" gradientUnits="userSpaceOnUse">
<stop stop-color="#FF008E"/>
<stop offset="1" stop-color="#FFCD1E"/>
</linearGradient>
</defs>
</svg>
